<?xml version="1.0" encoding="UTF-8" standalone="no"?><!-- Generator: Gravit.io --><svg xmlns="http://www.w3.org/2000/svg" xmlns:xlink="http://www.w3.org/1999/xlink" style="isolation:isolate" viewBox="0 0 512 512" width="512pt" height="512pt"><g><g><g><path d=" M 79.645 0 C 63.985 0 51.2 12.785 51.2 28.444 L 51.2 449.422 C 51.2 465.082 63.985 477.867 79.645 477.867 L 307.378 477.867 C 322.964 498.536 347.638 512 375.467 512 C 422.527 512 460.8 473.727 460.8 426.667 C 460.8 389.562 437.043 358.039 403.911 346.311 L 403.911 28.444 C 403.911 12.785 391.126 0 375.467 0 L 79.645 0 Z  M 79.645 11.378 L 375.467 11.378 C 385.02 11.378 392.533 18.891 392.533 28.444 L 392.533 343.111 C 387.035 341.995 381.29 341.333 375.467 341.333 C 328.406 341.333 290.133 379.606 290.133 426.667 C 290.133 441.033 293.794 454.599 300.089 466.489 L 79.645 466.489 C 70.091 466.489 62.578 458.976 62.578 449.422 L 62.578 28.444 C 62.578 18.891 70.091 11.378 79.645 11.378 Z  M 125.156 68.267 C 122.014 68.267 119.467 70.814 119.467 73.956 C 119.467 77.097 122.014 79.644 125.156 79.644 L 329.956 79.644 C 333.097 79.644 335.644 77.097 335.644 73.956 C 335.644 70.814 333.097 68.267 329.956 68.267 L 125.156 68.267 Z  M 125.156 147.911 C 122.014 147.911 119.467 150.458 119.467 153.6 C 119.467 156.742 122.014 159.289 125.156 159.289 L 329.956 159.289 C 333.097 159.289 335.644 156.742 335.644 153.6 C 335.644 150.458 333.097 147.911 329.956 147.911 L 125.156 147.911 Z  M 125.156 227.555 C 122.014 227.555 119.467 230.102 119.467 233.244 C 119.467 236.386 122.014 238.933 125.156 238.933 L 329.956 238.933 C 333.097 238.933 335.644 236.386 335.644 233.244 C 335.644 230.102 333.097 227.555 329.956 227.555 L 125.156 227.555 Z  M 125.156 307.2 C 122.014 307.2 119.467 309.747 119.467 312.889 C 119.467 316.031 122.014 318.578 125.156 318.578 L 329.956 318.578 C 333.097 318.578 335.644 316.031 335.644 312.889 C 335.644 309.747 333.097 307.2 329.956 307.2 L 125.156 307.2 Z  M 375.467 352.711 C 416.379 352.711 449.422 385.755 449.422 426.667 C 449.422 467.578 416.379 500.622 375.467 500.622 C 334.554 500.622 301.511 467.578 301.511 426.667 C 301.511 385.755 334.554 352.711 375.467 352.711 Z  M 375.467 381.156 C 372.325 381.156 369.778 383.703 369.778 386.845 L 369.778 420.978 L 335.644 420.978 C 332.503 420.978 329.956 423.525 329.956 426.667 C 329.956 429.809 332.503 432.356 335.644 432.356 L 369.778 432.356 L 369.778 466.489 C 369.778 469.631 372.325 472.178 375.467 472.178 C 378.609 472.178 381.155 469.631 381.155 466.489 L 381.155 432.356 L 415.289 432.356 C 418.431 432.356 420.978 429.809 420.978 426.667 C 420.978 423.525 418.431 420.978 415.289 420.978 L 381.155 420.978 L 381.155 386.845 C 381.155 383.703 378.609 381.156 375.467 381.156 Z  M 125.156 386.845 C 122.014 386.845 119.467 389.391 119.467 392.533 C 119.467 395.675 122.014 398.222 125.156 398.222 L 238.933 398.222 C 242.075 398.222 244.622 395.675 244.622 392.533 C 244.622 389.391 242.075 386.845 238.933 386.845 L 125.156 386.845 Z " fill="rgb(0,0,0)"/></g></g></g></svg>