<?xml version="1.0" encoding="UTF-8" standalone="no"?><!-- Generator: Gravit.io -->
<svg xmlns="http://www.w3.org/2000/svg" style="isolation:isolate"
     viewBox="0 0 512 512" width="512pt" height="512pt">
    <defs>
        <clipPath id="_clipPath_4rZ8VwvB168WWnilFqD0wwL8egkd13XK">
            <rect width="512" height="512"/>
        </clipPath>
    </defs>
    <g clip-path="url(#_clipPath_4rZ8VwvB168WWnilFqD0wwL8egkd13XK)">
        <rect width="512" height="512" style="fill:rgb(123,175,212)" fill-opacity="0"/>
        <g>
            <path d=" M 512 64 C 512 28.654 483.345 0 448 0 C 412.654 0 384 28.654 384 64 C 384 78.787 389.064 92.363 397.486 103.201 L 359.442 141.246 C 332.105 117.848 296.527 104 258.226 104 C 218.432 104 182.111 118.936 154.725 143.412 L 114.514 103.201 C 122.936 92.363 128 78.787 128 64 C 128 28.654 99.346 0 64 0 C 28.654 0 0 28.654 0 64 C 0 99.345 28.654 128 64 128 C 78.787 128 92.363 122.936 103.201 114.513 L 143.377 154.689 C 118.912 181.6 104 217.109 104 256 C 104 294.891 118.912 330.4 143.377 357.31 L 103.201 397.486 C 92.363 389.064 78.787 384 64 384 C 28.654 384 0 412.654 0 448 C 0 483.345 28.654 512 64 512 C 99.346 512 128 483.345 128 448 C 128 433.213 122.936 419.637 114.514 408.799 L 154.725 368.588 C 182.111 393.064 218.432 408 258.226 408 C 296.158 408 331.82 394.057 359.285 370.598 L 397.486 408.799 C 389.064 419.637 384 433.213 384 448 C 384 483.345 412.654 512 448 512 C 483.345 512 512 483.345 512 448 C 512 412.654 483.345 384 448 384 C 433.213 384 419.637 389.064 408.799 397.486 L 370.896 359.584 C 387.098 342.558 399.476 321.795 406.35 298.469 C 407.598 294.23 405.176 289.781 400.938 288.533 C 396.695 287.275 392.252 289.707 391.002 293.945 C 373.99 351.677 319.391 392 258.226 392 C 182.008 392 120 330.99 120 256 C 120 181.01 182.008 120 258.226 120 C 321.627 120 376.74 162.179 392.252 222.572 C 393.35 226.85 397.707 229.427 401.99 228.33 C 406.27 227.23 408.848 222.871 407.748 218.592 C 401.199 193.09 388.332 170.502 371.053 152.26 L 408.799 114.513 C 419.637 122.936 433.213 128 448 128 C 483.345 128 512 99.345 512 64 Z  M 64 112 C 53.568 112 43.934 108.617 36.051 102.945 C 36.578 89.797 46.808 80 60.301 80 L 67.688 80 C 81.188 80 91.422 89.797 91.949 102.945 C 84.066 108.617 74.432 112 64 112 Z  M 56 52 C 56 47.588 59.588 44 64 44 C 68.412 44 72 47.588 72 52 C 72 56.412 68.412 60 64 60 C 59.588 60 56 56.412 56 52 Z  M 105.049 88.752 C 100.982 78.707 92.976 70.82 82.82 66.845 C 86.053 62.756 88 57.605 88 52 C 88 38.766 77.234 28 64 28 C 50.766 28 40 38.766 40 52 C 40 57.605 41.945 62.754 45.177 66.844 C 35.021 70.818 27.018 78.705 22.951 88.75 C 18.57 81.511 16 73.06 16 64 C 16 37.533 37.533 16 64 16 C 90.467 16 112 37.533 112 64 C 112 73.06 109.43 81.513 105.049 88.752 Z  M 64 496 C 53.568 496 43.934 492.617 36.051 486.945 C 36.578 473.797 46.808 464 60.301 464 L 67.688 464 C 81.188 464 91.422 473.797 91.949 486.945 C 84.066 492.617 74.432 496 64 496 Z  M 56 436 C 56 431.588 59.588 428 64 428 C 68.412 428 72 431.588 72 436 C 72 440.412 68.412 444 64 444 C 59.588 444 56 440.412 56 436 Z  M 105.049 472.752 C 100.982 462.707 92.976 454.82 82.82 450.845 C 86.053 446.756 88 441.605 88 436 C 88 422.766 77.234 412 64 412 C 50.766 412 40 422.766 40 436 C 40 441.605 41.945 446.754 45.177 450.844 C 35.021 454.818 27.018 462.705 22.951 472.75 C 18.57 465.511 16 457.06 16 448 C 16 421.533 37.533 400 64 400 C 90.467 400 112 421.533 112 448 C 112 457.06 109.43 465.513 105.049 472.752 Z  M 448 496 C 437.568 496 427.934 492.617 420.051 486.945 C 420.578 473.797 430.812 464 444.312 464 L 451.699 464 C 465.192 464 475.422 473.797 475.949 486.945 C 468.066 492.617 458.432 496 448 496 Z  M 440 436 C 440 431.588 443.588 428 448 428 C 452.412 428 456 431.588 456 436 C 456 440.412 452.412 444 448 444 C 443.588 444 440 440.412 440 436 Z  M 448 400 C 474.467 400 496 421.533 496 448 C 496 457.06 493.43 465.511 489.049 472.75 C 484.982 462.705 476.978 454.818 466.822 450.844 C 470.055 446.754 472 441.605 472 436 C 472 422.766 461.234 412 448 412 C 434.766 412 424 422.766 424 436 C 424 441.605 425.947 446.756 429.18 450.845 C 419.024 454.82 411.018 462.707 406.951 472.752 C 402.57 465.513 400 457.06 400 448 C 400 421.533 421.533 400 448 400 Z  M 406.951 88.752 C 402.57 81.513 400 73.06 400 64 C 400 37.533 421.533 16 448 16 C 474.467 16 496 37.533 496 64 C 496 73.06 493.43 81.511 489.049 88.75 C 484.982 78.705 476.978 70.818 466.822 66.844 C 470.055 62.754 472 57.605 472 52 C 472 38.766 461.234 28 448 28 C 434.766 28 424 38.766 424 52 C 424 57.605 425.947 62.756 429.18 66.845 C 419.024 70.82 411.018 78.707 406.951 88.752 Z  M 456 52 C 456 56.412 452.412 60 448 60 C 443.588 60 440 56.412 440 52 C 440 47.588 443.588 44 448 44 C 452.412 44 456 47.588 456 52 Z  M 444.312 80 L 451.699 80 C 465.192 80 475.422 89.797 475.949 102.945 C 468.066 108.617 458.432 112 448 112 C 437.568 112 427.934 108.617 420.051 102.945 C 420.578 89.797 430.812 80 444.312 80 Z "
                  fill="rgb(255,255,255)"/>
            <path d=" M 304.511 356.457 C 304.471 360.875 308.02 364.488 312.44 364.529 C 312.463 364.529 312.488 364.529 312.514 364.529 C 316.896 364.529 320.471 360.996 320.511 356.602 C 320.631 343.451 317.723 330.177 311.617 316.021 C 305.914 302.797 297.164 289.595 286.316 277.845 C 280.274 271.299 273.615 264.945 266.924 258.754 C 294.934 232.912 324.014 203.107 320.166 157.822 C 319.793 153.42 315.908 150.177 311.518 150.529 C 307.115 150.902 303.85 154.775 304.225 159.177 C 307.484 197.562 282.748 222.467 255.098 247.894 C 227.447 222.467 202.711 197.562 205.971 159.177 C 206.345 154.775 203.08 150.902 198.677 150.529 C 194.318 150.177 190.404 153.42 190.029 157.822 C 186.182 203.107 215.261 232.912 243.271 258.754 C 236.58 264.945 229.924 271.297 223.881 277.844 C 213.031 289.595 204.281 302.797 198.578 316.021 C 192.473 330.177 189.564 343.451 189.684 356.602 C 189.725 360.996 193.297 364.529 197.682 364.529 C 197.707 364.529 197.732 364.529 197.756 364.529 C 202.176 364.488 205.725 360.875 205.684 356.457 C 205.584 345.578 208.066 334.426 213.27 322.357 C 218.193 310.939 226.137 298.986 235.637 288.697 C 241.627 282.207 248.188 275.984 255.098 269.611 C 262.008 275.984 268.568 282.207 274.56 288.699 C 284.058 298.986 292.002 310.939 296.926 322.357 C 302.129 334.426 304.611 345.578 304.511 356.457 L 304.511 356.457 L 304.511 356.457 L 304.511 356.457 L 304.511 356.457 L 304.511 356.457 Z  M 288 160 C 288 155.582 284.418 152 280 152 L 232 152 C 227.582 152 224 155.582 224 160 C 224 164.418 227.582 168 232 168 L 280 168 C 284.418 168 288 164.418 288 160 L 288 160 L 288 160 L 288 160 L 288 160 L 288 160 Z  M 280 184 C 280 179.582 276.418 176 272 176 L 240 176 C 235.582 176 232 179.582 232 184 C 232 188.418 235.582 192 240 192 L 272 192 C 276.418 192 280 188.418 280 184 L 280 184 L 280 184 L 280 184 L 280 184 Z  M 248 200 C 243.582 200 240 203.582 240 208 C 240 212.418 243.582 216 248 216 L 264 216 C 268.418 216 272 212.418 272 208 C 272 203.582 268.418 200 264 200 L 248 200 L 248 200 L 248 200 L 248 200 Z  M 224 356 C 224 360.418 227.582 364 232 364 L 280 364 C 284.418 364 288 360.418 288 356 C 288 351.582 284.418 348 280 348 L 232 348 C 227.582 348 224 351.582 224 356 L 224 356 L 224 356 Z  M 232 328 C 232 332.418 235.582 336 240 336 L 272 336 C 276.418 336 280 332.418 280 328 C 280 323.582 276.418 320 272 320 L 240 320 C 235.582 320 232 323.582 232 328 L 232 328 Z  M 264 316 C 268.418 316 272 312.418 272 308 C 272 303.582 268.418 300 264 300 L 248 300 C 243.582 300 240 303.582 240 308 C 240 312.418 243.582 316 248 316 L 264 316 Z "
                  fill-rule="evenodd" fill="rgb(19,41,75)"/>
            <circle vector-effect="non-scaling-stroke" cx="404" cy="260" r="8" fill="rgb(255,255,255)"/>
        </g>
    </g>
</svg>